<svg width="40" height="40" viewBox="0 0 40 40" fill="none" xmlns="http://www.w3.org/2000/svg">
<path d="M34.6345 26.2472L30.4186 30.4618L30.4465 15.7143C30.4465 14.9248 29.8075 14.2858 29.0179 14.2858C28.2311 14.2858 27.5893 14.9248 27.5893 15.7143L27.5615 30.3613L23.4488 26.2472C22.8906 25.6906 21.9866 25.6906 21.4286 26.2472C20.8706 26.8053 20.8706 27.7108 21.4286 28.2688L27.3075 34.1476C27.6982 34.6652 28.3203 35.0001 29.0179 35.0001C29.5621 35.0001 30.0559 34.7992 30.4325 34.4672C30.4883 34.4253 30.5413 34.3792 30.5916 34.3291L36.6546 28.2688C37.2126 27.7108 37.2126 26.8053 36.6546 26.2472C36.0966 25.6906 35.1926 25.6906 34.6345 26.2472Z" fill="black"/>
<path d="M2.85718 29.5717C2.85718 30.2023 3.36778 30.7143 4.00115 30.7143H15.2846C15.558 30.7143 15.8092 30.6195 16.0045 30.4605C16.264 30.2512 16.4286 29.9303 16.4286 29.5717V28.9998C16.4286 28.3692 15.918 27.8572 15.2846 27.8572H4.00115C3.66912 27.8572 3.37058 27.9967 3.16131 28.2213C3.04412 28.3455 2.95762 28.4962 2.90741 28.6636C2.87392 28.7696 2.85718 28.8826 2.85718 28.9998V29.5717Z" fill="black"/>
<path d="M3.57983 19.2049C3.47102 19.1616 3.37058 19.103 3.28129 19.0304C3.02179 18.8212 2.85718 18.5017 2.85718 18.1432V17.5712C2.85718 16.9406 3.36778 16.4286 4.00115 16.4286H21.7132C22.3466 16.4286 22.8572 16.9406 22.8572 17.5712V18.1432C22.8572 18.7737 22.3466 19.2857 21.7132 19.2857H4.00115C3.85328 19.2857 3.71098 19.2564 3.57983 19.2049Z" fill="black"/>
<path d="M2.96321 7.19309C2.89623 7.04799 2.85718 6.88616 2.85718 6.71457V6.14257C2.85718 5.77846 3.02738 5.4534 3.29245 5.24414C3.48776 5.09069 3.73329 5 4.00115 5H34.5703C35.2038 5 35.7143 5.512 35.7143 6.14257V6.71457C35.7143 7.34514 35.2038 7.85714 34.5703 7.85714H4.00115C3.54078 7.85714 3.14456 7.5851 2.96321 7.19309Z" fill="black"/>
</svg>
