<svg width="234" height="406" viewBox="0 0 234 406" fill="none" xmlns="http://www.w3.org/2000/svg">
<path d="M167 360.5L167.591 359.121L167.167 358.939L166.714 359.028L167 360.5ZM205.5 377L206.57 375.949L206.363 375.738L206.091 375.621L205.5 377ZM231.986 405.5C232.814 405.508 233.492 404.842 233.5 404.014L233.626 390.514C233.634 389.686 232.968 389.008 232.14 389.001C231.312 388.993 230.634 389.658 230.626 390.486L230.514 402.486L218.515 402.374C217.686 402.366 217.008 403.031 217.001 403.86C216.993 404.688 217.658 405.366 218.486 405.374L231.986 405.5ZM2.25 74.5L0.749999 74.5L0.75 74.6242L0.770407 74.7466L2.25 74.5ZM117 357.5L115.67 358.194L115.93 358.691L116.452 358.896L117 357.5ZM131 363L130.451 364.396L130.676 364.484L130.917 364.498L131 363ZM149 364L148.917 365.498L149.103 365.508L149.286 365.472L149 364ZM63.5 284L62.0798 284.483L62.1794 284.776L62.3868 285.005L63.5 284ZM77.5 299.5L76.3868 300.505L76.6592 300.807L77.0466 300.93L77.5 299.5ZM98 306L98.9843 304.868L98.7497 304.664L98.4534 304.57L98 306ZM7 103L5.52041 103.247L5.55068 103.428L5.62398 103.597L7 103ZM18.5 129.5L17.124 130.097L17.2302 130.342L17.4144 130.535L18.5 129.5ZM39 151L40.2408 150.157L40.1712 150.055L40.0856 149.965L39 151ZM57 177.5L58.4353 177.064L58.369 176.846L58.2408 176.657L57 177.5ZM65.5 205.5L66.9612 205.839L67.0519 205.448L66.9353 205.064L65.5 205.5ZM59 233.5L57.5389 233.161L57.5266 233.214L57.5181 233.268L59 233.5ZM55 259L53.5181 258.768L53.4608 259.133L53.5798 259.483L55 259ZM109.5 316L110.947 315.605L110.827 315.167L110.484 314.868L109.5 316ZM112.5 327L113.93 327.452L114.063 327.031L113.947 326.605L112.5 327ZM109.5 336.5L108.07 336.048L107.963 336.385L108.018 336.734L109.5 336.5ZM111 346L109.518 346.234L109.557 346.476L109.67 346.694L111 346ZM166.409 361.879L204.909 378.379L206.091 375.621L167.591 359.121L166.409 361.879ZM204.429 378.051L230.929 405.051L233.07 402.949L206.57 375.949L204.429 378.051ZM0.750009 -1.9069e-07L0.749999 74.5L3.75 74.5L3.75001 1.56841e-07L0.750009 -1.9069e-07ZM116.452 358.896L130.451 364.396L131.548 361.604L117.548 356.104L116.452 358.896ZM130.917 364.498L148.917 365.498L149.083 362.502L131.083 361.502L130.917 364.498ZM149.286 365.472L167.286 361.972L166.714 359.028L148.714 362.528L149.286 365.472ZM62.3868 285.005L76.3868 300.505L78.6131 298.495L64.6131 282.995L62.3868 285.005ZM77.0466 300.93L97.5466 307.43L98.4534 304.57L77.9533 298.07L77.0466 300.93ZM0.770407 74.7466L5.52041 103.247L8.47959 102.753L3.72959 74.2534L0.770407 74.7466ZM5.62398 103.597L17.124 130.097L19.876 128.903L8.37602 102.403L5.62398 103.597ZM17.4144 130.535L37.9144 152.035L40.0856 149.965L19.5856 128.465L17.4144 130.535ZM37.7592 151.843L55.7592 178.343L58.2408 176.657L40.2408 150.157L37.7592 151.843ZM55.5647 177.936L64.0647 205.936L66.9353 205.064L58.4353 177.064L55.5647 177.936ZM64.0389 205.161L57.5389 233.161L60.4611 233.839L66.9612 205.839L64.0389 205.161ZM57.5181 233.268L53.5181 258.768L56.4819 259.232L60.4819 233.732L57.5181 233.268ZM53.5798 259.483L62.0798 284.483L64.9201 283.517L56.4202 258.517L53.5798 259.483ZM97.0157 307.132L108.516 317.132L110.484 314.868L98.9843 304.868L97.0157 307.132ZM108.053 316.395L111.053 327.395L113.947 326.605L110.947 315.605L108.053 316.395ZM111.07 326.548L108.07 336.048L110.93 336.952L113.93 327.452L111.07 326.548ZM108.018 336.734L109.518 346.234L112.482 345.766L110.982 336.266L108.018 336.734ZM109.67 346.694L115.67 358.194L118.33 356.806L112.33 345.306L109.67 346.694Z" fill="black"/>
</svg>
