<svg width="58" height="58" viewBox="0 0 58 58" fill="none" xmlns="http://www.w3.org/2000/svg">
<g filter="url(#filter0_d_10_731)">
<path d="M8.00002 25C8.00002 13.402 17.402 4 29 4C40.598 4 50 13.402 50 25C50 36.598 40.598 46 29 46C17.402 46 8.00002 36.598 8.00002 25Z" fill="black"/>
</g>
<path d="M27.4 17H30.6V20.2H27.4V17ZM29 33C29.88 33 30.6 32.28 30.6 31.4V25C30.6 24.12 29.88 23.4 29 23.4C28.12 23.4 27.4 24.12 27.4 25V31.4C27.4 32.28 28.12 33 29 33ZM29 9C20.168 9 13 16.168 13 25C13 33.832 20.168 41 29 41C37.832 41 45 33.832 45 25C45 16.168 37.832 9 29 9ZM29 37.8C21.944 37.8 16.2 32.056 16.2 25C16.2 17.944 21.944 12.2 29 12.2C36.056 12.2 41.8 17.944 41.8 25C41.8 32.056 36.056 37.8 29 37.8Z" fill="white"/>
<defs>
<filter id="filter0_d_10_731" x="0" y="0" width="58" height="58" filterUnits="userSpaceOnUse" color-interpolation-filters="sRGB">
<feFlood flood-opacity="0" result="BackgroundImageFix"/>
<feColorMatrix in="SourceAlpha" type="matrix" values="0 0 0 0 0 0 0 0 0 0 0 0 0 0 0 0 0 0 127 0" result="hardAlpha"/>
<feOffset dy="4"/>
<feGaussianBlur stdDeviation="4"/>
<feComposite in2="hardAlpha" operator="out"/>
<feColorMatrix type="matrix" values="0 0 0 0 0 0 0 0 0 0 0 0 0 0 0 0 0 0 0.14 0"/>
<feBlend mode="normal" in2="BackgroundImageFix" result="effect1_dropShadow_10_731"/>
<feBlend mode="normal" in="SourceGraphic" in2="effect1_dropShadow_10_731" result="shape"/>
</filter>
</defs>
</svg>
